<svg width="64" height="64" viewBox="0 0 64 64" fill="none" xmlns="http://www.w3.org/2000/svg">
<path d="M17.89 26.92L15.2 16.28L11.03 17.18L13.56 26.92H17.89ZM26.2 26.92L21.18 3.6L17.27 4.44L22.11 26.92H26.2ZM22.4 2.29C22.47 2.4 22.5 2.48 22.52 2.57C22.54 2.67 22.54 2.76 22.52 2.85L22.5 2.91L27.66 26.92H28.44L28.43 10.27L26.28 0.27L22.12 1.16L22.36 2.25L22.4 2.29ZM34.15 4.74H29.88V26.92H34.19L34.15 4.74ZM36.34 26.92L41.46 2.79L41.47 2.77L41.87 0.9L37.72 0L35.6 9.87L35.63 26.92H36.34ZM41.92 26.92L46.73 4.58L42.74 3.71L37.81 26.92H41.92ZM50.49 26.92L52.97 17.31L48.81 16.42L46.14 26.92H50.49ZM7.95001 28.36L8.55001 36.03H55.46L56.05 28.36H7.95001ZM9.04001 42.41H54.96L55.34 37.46H8.66001L9.04001 42.41ZM10.6 62.59L11.09 61.95C16.05 55.42 23.87 51.53 32 51.53C40.15 51.53 47.96 55.43 52.91 61.95L53.4 62.59L54.85 43.84H9.15001L10.6 62.59Z" fill="#DFBC00"/>
<path d="M32 52.97C23.96 52.97 16.37 56.91 11.7 63.52L11.36 64H52.64L52.3 63.52C47.63 56.91 40.05 52.97 32 52.97Z" fill="#DFBC00"/>
</svg>
