<svg width="65" height="65" viewBox="0 0 65 65" fill="none" xmlns="http://www.w3.org/2000/svg">
<path d="M64.7329 13.072C64.5028 12.9027 64.1981 12.8891 63.9612 13.0381C62.6073 13.898 58.2068 16.0378 53.2511 20.9332L53.1698 20.852C52.31 19.992 51.1727 19.5181 49.9608 19.5181C48.749 19.5181 47.6117 19.9921 46.7519 20.852L42.7373 24.8605C41.5864 26.0183 41.187 27.6434 41.539 29.1195C41.2005 29.0451 40.8485 28.9977 40.4896 28.9977C39.2777 28.9977 38.1336 29.4649 37.2806 30.3249L33.266 34.3402C32.1151 35.4913 31.7158 37.1163 32.0678 38.5992C30.47 38.2201 28.8927 38.7144 27.8026 39.7977L23.7948 43.813C22.021 45.5802 22.021 48.4647 23.7948 50.232L23.8692 50.3065L21.2966 52.8796L20.7956 52.3785C20.5316 52.1144 20.105 52.1144 19.841 52.3785C19.577 52.6426 19.577 53.0692 19.841 53.3332L20.342 53.841L13.7074 60.4701C12.6716 61.5061 12.6716 63.1921 13.7074 64.2282C14.2287 64.7428 14.9056 65 15.5895 65C16.2664 65 16.9434 64.7428 17.4647 64.2282L24.0926 57.5924L24.6003 58.0934C24.8643 58.3644 25.2908 58.3644 25.5548 58.0934C25.8188 57.8294 25.8188 57.4028 25.5548 57.1387L25.0539 56.6377L27.6265 54.0646L27.701 54.139C28.5879 55.026 29.7456 55.4661 30.91 55.4661C32.0745 55.4661 33.2321 55.026 34.119 54.139L38.1336 50.1304C39.2845 48.9726 39.6839 47.3475 39.3318 45.8713C40.9296 46.2437 42.5069 45.7562 43.5901 44.6661L47.6047 40.6508C48.7623 39.4997 49.1551 37.8746 48.803 36.3916C50.4278 36.7776 52.0052 36.2562 53.0681 35.1932L57.076 31.1779C58.8497 29.4107 58.8497 26.5261 57.076 24.7588L56.9947 24.6775C60.1496 21.4814 62.8101 17.8792 64.9021 13.9587C65.0917 13.634 64.9902 13.2683 64.7329 13.072ZM24.0927 55.6762L23.1788 54.7554L22.2581 53.8412L24.8307 51.2682L26.6655 53.1031L24.0927 55.6762ZM37.1723 49.1691L33.1644 53.1844C31.9188 54.4236 29.9014 54.4236 28.6556 53.1844L24.7493 49.2774C23.5105 48.0316 23.5105 46.0138 24.7493 44.7679L28.7639 40.7594C30.0028 39.5135 32.027 39.5135 33.266 40.7594L37.1723 44.6663C38.4179 45.9054 38.4179 47.93 37.1723 49.1691ZM56.1215 30.2234L52.1069 34.2318C50.868 35.4778 48.8437 35.4778 47.6048 34.2318L43.6986 30.3249C42.4529 29.0858 42.4529 27.0612 43.6986 25.8221L47.7064 21.8068C48.3293 21.1838 49.1485 20.8791 49.9608 20.8791C50.78 20.8791 51.5924 21.1838 52.2152 21.8068L56.1215 25.7138C57.3604 26.9596 57.3604 28.9774 56.1215 30.2234ZM56.0402 23.723L54.2055 21.8881C57.4958 18.6515 60.4542 16.6879 62.4785 15.4759C60.6708 18.4483 58.5113 21.2178 56.0402 23.723ZM51.809 0.145776C51.5856 -0.0302596 51.2741 -0.0505812 51.0305 0.105133C49.4396 1.1141 45.2624 3.11832 40.3203 8.00033L40.239 7.91904C38.4721 6.14497 35.5881 6.14497 33.8211 7.91904L29.8066 11.9277C28.6557 13.0856 28.2562 14.7106 28.6084 16.1935C27.1258 15.8414 25.501 16.2409 24.3501 17.392L20.3355 21.4072C19.1846 22.5583 18.7851 24.1834 19.1373 25.6663C17.6547 25.3142 16.0299 25.7136 14.8721 26.8647L10.8643 30.88C9.0905 32.6473 9.0905 35.5318 10.8643 37.2991L10.9388 37.3804L8.36604 39.9468L7.86507 39.4457C7.60107 39.1817 7.17451 39.1817 6.91051 39.4457C6.6465 39.7099 6.6465 40.1364 6.91051 40.4004L7.41147 40.9082L0.776878 47.5373C-0.25896 48.5732 -0.25896 50.2592 0.776878 51.2952C1.81272 52.3245 3.49162 52.338 4.53419 51.2952L11.1619 44.6595L11.6696 45.1673C11.9336 45.4313 12.3602 45.4313 12.6242 45.1673C12.8882 44.8963 12.8882 44.4698 12.6242 44.2057L12.1232 43.7046L14.6959 41.1315L14.7703 41.2061C15.6301 42.0661 16.7674 42.5399 17.9793 42.5399C19.1911 42.5399 20.3284 42.0659 21.1882 41.2061L25.2028 37.1975C26.3537 36.0396 26.7531 34.4146 26.4011 32.9318C28.0192 33.3177 29.5965 32.7962 30.6595 31.7333L34.6741 27.718C35.825 26.5669 36.2243 24.9418 35.8723 23.459C37.4971 23.8448 39.0746 23.3234 40.1375 22.2605L44.1453 18.2452C45.9191 16.478 45.9191 13.5935 44.1453 11.8261L44.064 11.7448C48.4036 7.35029 51.6938 1.85889 52.0323 0.897421C52.1272 0.626509 52.0324 0.321812 51.809 0.145776ZM11.1621 42.7433C11.1147 42.6958 9.46283 41.0438 9.32746 40.9082L11.9001 38.3353L13.7348 40.177L11.1621 42.7433ZM24.2417 36.2362L20.2338 40.2515C18.988 41.4906 16.9707 41.4906 15.725 40.2515L11.8187 36.3445C10.5798 35.0987 10.5798 33.0809 11.8187 31.8349L15.8333 27.8265C17.079 26.5805 19.0964 26.5872 20.3354 27.8265L24.2417 31.7334C25.4873 32.9725 25.4873 34.9971 24.2417 36.2362ZM43.1907 17.2903L39.1762 21.2989C37.9373 22.5448 35.913 22.5448 34.6742 21.2989L30.7679 17.392C29.5223 16.1528 29.5223 14.1283 30.7679 12.8891L34.7758 8.87378C36.0215 7.63454 38.039 7.63454 39.2846 8.87378L43.1909 12.7807C44.4298 14.0267 44.4298 16.0445 43.1907 17.2903ZM43.1096 10.7901L41.2817 8.95506C44.5651 5.71847 47.5237 3.75489 49.5479 2.54284C47.7402 5.52211 45.5807 8.2847 43.1096 10.7901Z" fill="#DFBC00"/>
</svg>
