<svg width="64" height="64" viewBox="0 0 64 64" fill="none" xmlns="http://www.w3.org/2000/svg">
<path d="M22.0438 18.0302C22.6881 15.8226 24.1312 13.934 26.0919 12.7323C28.0526 11.5306 30.3905 11.102 32.65 11.53C32.2051 10.6911 31.6428 9.91996 30.98 9.24001C29.4144 7.68546 27.3925 6.67273 25.21 6.35001C25.77 7.94001 26.19 9.94001 25.21 11.17C23.83 12.89 21.11 11.36 18.47 13.09C17.2191 13.9611 16.2828 15.2125 15.8 16.6583C17.9806 16.282 20.2219 16.7744 22.0438 18.0302V18.0302Z" fill="#DFBC00"/>
<path d="M15.3565 32.7462C15.3639 33.2718 15.5779 33.7733 15.9522 34.1423C16.3265 34.5113 16.8309 34.7181 17.3565 34.7181C17.8821 34.7181 18.3866 34.5112 18.7608 34.1422C19.1351 33.7732 19.3491 33.2717 19.3565 32.7461V29.7462C19.3631 29.2241 19.5738 28.7253 19.9435 28.3565C20.3132 27.9878 20.8125 27.7783 21.3347 27.773C21.8568 27.7678 22.3603 27.967 22.7374 28.3283C23.1145 28.6895 23.3352 29.1839 23.3524 29.7058C23.3565 29.7462 23.3565 30.7462 23.3565 30.7462C23.3639 31.2718 23.5779 31.7733 23.9522 32.1423C24.3265 32.5113 24.8309 32.7181 25.3565 32.7181C25.8821 32.7181 26.3866 32.5112 26.7608 32.1422C27.1351 31.7732 27.3491 31.2717 27.3565 30.7461V29.1754C25.4282 28.3556 23.8312 26.9118 22.8217 25.0756C21.8123 23.2395 21.449 21.1174 21.79 19.05C17.1559 15.3951 9.7723 18.7405 9.53113 24.7461H15.3564L15.3565 32.7462Z" fill="#DFBC00"/>
<path d="M44.4296 26.0633C41.6288 32.1471 33.4164 33.6789 28.3564 29.5191V30.7461C28.3478 31.536 28.0279 32.2907 27.4662 32.8462C26.9045 33.4018 26.1464 33.7133 25.3564 33.7133C24.5664 33.7133 23.8083 33.4017 23.2466 32.8462C22.685 32.2906 22.3651 31.5359 22.3564 30.746V29.7461C22.3513 29.4842 22.2437 29.2348 22.0567 29.0515C21.8697 28.8681 21.6183 28.7654 21.3564 28.7654C21.0945 28.7654 20.8431 28.8681 20.6561 29.0515C20.4691 29.2349 20.3615 29.4843 20.3564 29.7461V32.7461C20.3475 33.5359 20.0275 34.2903 19.4659 34.8456C18.9042 35.401 18.1463 35.7125 17.3564 35.7124C16.5665 35.7124 15.8086 35.401 15.2469 34.8456C14.6853 34.2902 14.3653 33.5358 14.3564 32.746V25.7462H9.35645C8.82601 25.7462 8.3173 25.957 7.94223 26.332C7.56716 26.7071 7.35645 27.2158 7.35645 27.7462V29.7462H7.40692C7.64231 34.2509 9.4738 38.5246 12.5733 41.8018C15.6729 45.0791 19.8379 47.1457 24.3225 47.6316C24.1623 50.7559 23.4984 53.8337 22.3564 56.7462H18.3564C17.826 56.7462 17.3173 56.957 16.9422 57.332C16.5672 57.7071 16.3564 58.2158 16.3564 58.7462C16.3564 59.2767 16.5672 59.7854 16.9422 60.1605C17.3173 60.5355 17.826 60.7462 18.3564 60.7462H34.3564C34.8869 60.7462 35.3956 60.5355 35.7707 60.1605C36.1457 59.7854 36.3564 59.2767 36.3564 58.7462C36.3564 58.2158 36.1457 57.7071 35.7707 57.332C35.3956 56.957 34.8869 56.7462 34.3564 56.7462H30.3564C29.2145 53.8337 28.5506 50.7559 28.3904 47.6316C32.8749 47.1457 37.04 45.0791 40.1396 41.8018C43.2391 38.5246 45.0706 34.2509 45.306 29.7462H45.3565C45.31 28.5783 45.6762 26.7439 44.4296 26.0633Z" fill="#DFBC00"/>
<path d="M55.649 3.66828C55.1703 3.35017 54.5949 3.2106 54.0237 3.27402C53.4524 3.33743 52.9217 3.59979 52.5244 4.01515L39.4728 17.0667C42.1075 22.9174 37.2621 30.1528 30.8274 29.8767C32.4538 30.6863 34.2788 31.0106 36.0846 30.811C37.8903 30.6113 39.6004 29.8961 41.0107 28.7508C42.4209 27.6055 43.4717 26.0784 44.0375 24.352C44.6033 22.6256 44.6602 20.7729 44.2015 19.015L55.9522 7.26429C56.1951 7.02127 56.382 6.7282 56.5 6.40551C56.618 6.08282 56.6641 5.73828 56.6353 5.39591C56.6064 5.05355 56.5032 4.7216 56.3329 4.42322C56.1625 4.12484 55.9291 3.8672 55.649 3.66828V3.66828Z" fill="#DFBC00"/>
<path d="M25.0709 14.7759C24.3037 15.5432 23.695 16.454 23.2798 17.4565C22.8646 18.4589 22.6509 19.5333 22.6509 20.6184C22.6509 21.7034 22.8646 22.7778 23.2798 23.7802C23.695 24.7827 24.3037 25.6935 25.0709 26.4608C33.0987 33.9159 44.2099 22.8005 36.7556 14.7759C35.2061 13.2264 33.1046 12.3559 30.9132 12.3559C28.7219 12.3559 26.6204 13.2264 25.0709 14.7759V14.7759Z" fill="#DFBC00"/>
</svg>
