<svg width="64" height="64" viewBox="0 0 64 64" fill="none" xmlns="http://www.w3.org/2000/svg">
<path d="M27 22H20C19.7348 22 19.4804 21.8946 19.2929 21.7071C19.1054 21.5196 19 21.2652 19 21C19 20.7348 19.1054 20.4804 19.2929 20.2929C19.4804 20.1054 19.7348 20 20 20H27C27.2652 20 27.5196 20.1054 27.7071 20.2929C27.8946 20.4804 28 20.7348 28 21C28 21.2652 27.8946 21.5196 27.7071 21.7071C27.5196 21.8946 27.2652 22 27 22Z" fill="#DFBC00"/>
<path d="M31 22C31.5523 22 32 21.5523 32 21C32 20.4477 31.5523 20 31 20C30.4477 20 30 20.4477 30 21C30 21.5523 30.4477 22 31 22Z" fill="#DFBC00"/>
<path d="M61.9 4.228C61.799 3.84674 61.6237 3.48916 61.3843 3.17575C61.1448 2.86234 60.8459 2.59926 60.5046 2.40158C60.1633 2.20389 59.7863 2.0755 59.3953 2.02375C59.0043 1.972 58.607 1.99791 58.226 2.1L43.226 6.1C42.662 6.25053 42.1541 6.56229 41.7646 6.9971C41.3751 7.43191 41.1208 7.97088 41.033 8.548L39.9 16H27.95C27.7562 13.4862 26.8353 11.0831 25.2995 9.08366C23.7637 7.08417 21.6794 5.57466 19.3007 4.73912C16.9219 3.90358 14.3515 3.7781 11.9027 4.378C9.45386 4.97789 7.23246 6.27723 5.50925 8.11764C3.78604 9.95805 2.63545 12.26 2.19775 14.743C1.76005 17.2259 2.05413 19.7825 3.04415 22.1013C4.03418 24.42 5.67738 26.4006 7.77345 27.8017C9.86952 29.2027 12.3279 29.9638 14.849 29.992L16.885 61.065C16.9015 61.3185 17.0138 61.5561 17.1992 61.7298C17.3845 61.9034 17.629 62 17.883 62H46.117C46.371 62 46.6155 61.9034 46.8008 61.7298C46.9861 61.5561 47.0985 61.3185 47.115 61.065L49.998 17.065C50.0069 16.9285 49.9877 16.7916 49.9415 16.6628C49.8954 16.534 49.8233 16.416 49.7298 16.3162C49.6362 16.2164 49.5232 16.1368 49.3977 16.0824C49.2721 16.028 49.1368 16 49 16H45.97L46.67 11.393L59.773 7.899C60.5411 7.69309 61.1963 7.19109 61.595 6.50299C61.9937 5.81489 62.1034 4.99681 61.9 4.228ZM3.99999 17C3.99551 14.1671 5.08447 11.4417 7.03993 9.39185C8.9954 7.34203 11.6665 6.12593 14.4965 5.99699C17.3265 5.86807 20.0971 6.83626 22.2308 8.69978C24.3646 10.5633 25.6969 13.1784 25.95 16H23.94C23.7507 14.2906 23.0754 12.6712 21.9942 11.3337C20.913 9.99618 19.4711 8.99657 17.8393 8.45323C16.2075 7.9099 14.4541 7.84561 12.7869 8.26798C11.1197 8.69036 9.60846 9.58169 8.43219 10.8364C7.25591 12.0912 6.46387 13.6567 6.14988 15.3477C5.8359 17.0387 6.01311 18.7842 6.66054 20.3776C7.30796 21.971 8.39848 23.3454 9.80292 24.3382C11.2074 25.3309 12.8669 25.9003 14.585 25.979L14.716 27.986C11.851 27.9105 9.12852 26.7204 7.12735 24.6688C5.12618 22.6172 4.0042 19.866 3.99999 17ZM21.917 16H17.414L20.598 12.816C21.297 13.7504 21.7505 14.8451 21.917 16ZM9.40199 21.184C8.49247 19.9787 8.00045 18.5099 8.00045 17C8.00045 15.4901 8.49247 14.0213 9.40199 12.816L13.586 17L9.40199 21.184ZM14.146 19.268L14.453 23.955C13.1365 23.8566 11.8751 23.386 10.816 22.598L14.146 19.268ZM10.816 11.402C12.0212 10.4925 13.4901 10.0005 15 10.0005C16.5099 10.0005 17.9787 10.4925 19.184 11.402L15 15.586L10.816 11.402ZM16.985 32L16.067 18H39.596L37.466 32H16.985ZM19 39C19 38.4067 19.1759 37.8266 19.5056 37.3333C19.8352 36.8399 20.3038 36.4554 20.8519 36.2284C21.4001 36.0013 22.0033 35.9419 22.5853 36.0576C23.1672 36.1734 23.7018 36.4591 24.1213 36.8787C24.5409 37.2982 24.8266 37.8328 24.9423 38.4147C25.0581 38.9967 24.9987 39.5999 24.7716 40.1481C24.5446 40.6962 24.16 41.1648 23.6667 41.4944C23.1734 41.8241 22.5933 42 22 42C21.2046 41.9992 20.442 41.6829 19.8795 41.1204C19.3171 40.558 19.0008 39.7954 19 39ZM26 60H21C20.7348 60 20.4804 59.8946 20.2929 59.7071C20.1053 59.5196 20 59.2652 20 59C20 58.7348 20.1053 58.4804 20.2929 58.2929C20.4804 58.1054 20.7348 58 21 58H26C26.2652 58 26.5196 58.1054 26.7071 58.2929C26.8946 58.4804 27 58.7348 27 59C27 59.2652 26.8946 59.5196 26.7071 59.7071C26.5196 59.8946 26.2652 60 26 60ZM25 52C24.4066 52 23.8266 51.8241 23.3333 51.4944C22.8399 51.1648 22.4554 50.6962 22.2283 50.1481C22.0013 49.5999 21.9419 48.9967 22.0576 48.4147C22.1734 47.8328 22.4591 47.2982 22.8787 46.8787C23.2982 46.4591 23.8328 46.1734 24.4147 46.0576C24.9967 45.9419 25.5999 46.0013 26.148 46.2284C26.6962 46.4554 27.1648 46.8399 27.4944 47.3333C27.824 47.8266 28 48.4067 28 49C27.9992 49.7954 27.6829 50.558 27.1204 51.1204C26.558 51.6829 25.7954 51.9992 25 52ZM30 60C29.8022 60 29.6089 59.9414 29.4444 59.8315C29.28 59.7216 29.1518 59.5654 29.0761 59.3827C29.0004 59.2 28.9806 58.9989 29.0192 58.8049C29.0578 58.6109 29.153 58.4327 29.2929 58.2929C29.4327 58.153 29.6109 58.0578 29.8049 58.0192C29.9989 57.9806 30.1999 58.0004 30.3827 58.0761C30.5654 58.1518 30.7216 58.28 30.8315 58.4444C30.9413 58.6089 31 58.8022 31 59C31 59.2652 30.8946 59.5196 30.7071 59.7071C30.5196 59.8946 30.2652 60 30 60ZM31 46C30.4066 46 29.8266 45.8241 29.3333 45.4944C28.8399 45.1648 28.4554 44.6962 28.2283 44.1481C28.0013 43.5999 27.9419 42.9967 28.0576 42.4147C28.1734 41.8328 28.4591 41.2982 28.8787 40.8787C29.2982 40.4591 29.8328 40.1734 30.4147 40.0576C30.9967 39.9419 31.5999 40.0013 32.148 40.2284C32.6962 40.4554 33.1648 40.8399 33.4944 41.3333C33.824 41.8266 34 42.4067 34 43C33.9992 43.7954 33.6829 44.558 33.1204 45.1204C32.558 45.6829 31.7954 45.9992 31 46ZM37.99 55.15C37.9714 55.2804 37.9269 55.4058 37.8592 55.5188C37.7916 55.6319 37.702 55.7303 37.5959 55.8083C37.4898 55.8863 37.3691 55.9424 37.241 55.9733C37.113 56.0041 36.98 56.0091 36.85 55.988C36.5879 55.948 36.3524 55.8058 36.1949 55.5925C36.0375 55.3792 35.971 55.1122 36.01 54.85L39.185 34H41.209L37.99 55.15ZM39.487 32L41.617 18H43.641L41.511 32H39.487ZM47.932 18L47.014 32H43.534L45.664 18H47.932ZM59.258 5.966L45.522 9.63C45.3341 9.68031 45.165 9.78429 45.0354 9.92922C44.9057 10.0742 44.8211 10.2537 44.792 10.446L43.947 16H41.923L43.011 8.85C43.0405 8.65771 43.1253 8.47815 43.2551 8.33325C43.3849 8.18835 43.5541 8.08437 43.742 8.034L58.742 4.034C58.8274 4.01078 58.9155 3.99901 59.004 3.999C59.2239 3.99975 59.4374 4.07295 59.6114 4.20726C59.7855 4.34157 59.9105 4.52951 59.967 4.742C60.0348 4.99845 59.9981 5.27131 59.865 5.50075C59.7319 5.7302 59.5132 5.89751 59.257 5.966H59.258Z" fill="#DFBC00"/>
</svg>
