<svg width="65" height="65" viewBox="0 0 65 65" fill="none" xmlns="http://www.w3.org/2000/svg">
<path d="M39.4226 61.1914H33.3886V53.8281H31.6113V61.1914H25.579C25.3433 61.1914 25.1173 61.285 24.9506 61.4517C24.7839 61.6184 24.6903 61.8444 24.6903 62.0801C24.6903 62.3158 24.7839 62.5418 24.9506 62.7085C25.1173 62.8751 25.3433 62.9688 25.579 62.9688H39.4226C39.6583 62.9688 39.8843 62.8751 40.051 62.7085C40.2176 62.5418 40.3113 62.3158 40.3113 62.0801C40.3113 61.8444 40.2176 61.6184 40.051 61.4517C39.8843 61.285 39.6583 61.1914 39.4226 61.1914ZM27.1484 13.6049C27.1452 13.5877 27.1371 13.5717 27.1251 13.5589C27.1132 13.546 27.0978 13.5369 27.0808 13.5325C27.0638 13.5281 27.0459 13.5286 27.0292 13.534C27.0125 13.5394 26.9977 13.5494 26.9865 13.563C26.9754 13.5765 26.9683 13.5929 26.9661 13.6103C26.9639 13.6277 26.9667 13.6454 26.9742 13.6613C26.9817 13.6771 26.9936 13.6905 27.0084 13.6999C27.0232 13.7092 27.0404 13.7142 27.058 13.7141C27.0806 13.7043 27.1005 13.6893 27.1162 13.6703C27.132 13.6514 27.143 13.629 27.1484 13.6049ZM38.2693 12.1448C38.2467 12.1405 38.2234 12.1433 38.2024 12.1528C38.1814 12.1622 38.1639 12.1779 38.1522 12.1977C38.1405 12.2175 38.1351 12.2404 38.1369 12.2633C38.1387 12.2863 38.1474 12.3081 38.1621 12.3258C38.1767 12.3436 38.1964 12.3564 38.2186 12.3625C38.2408 12.3686 38.2643 12.3678 38.286 12.3601C38.3076 12.3523 38.3264 12.3381 38.3397 12.3193C38.353 12.3006 38.3601 12.2782 38.3602 12.2552C38.355 12.2308 38.344 12.2081 38.3282 12.1889C38.3124 12.1697 38.2922 12.1546 38.2693 12.1448ZM27.6606 6.74185C27.6833 6.73211 27.7033 6.71712 27.719 6.69811C27.7347 6.6791 27.7457 6.65663 27.751 6.63254C27.7537 6.61921 27.7533 6.60545 27.75 6.59227C27.7467 6.57908 27.7405 6.56679 27.7319 6.55626C27.7233 6.54574 27.7125 6.53724 27.7003 6.53138C27.688 6.52552 27.6746 6.52245 27.661 6.52237C27.6474 6.52229 27.634 6.52522 27.6216 6.53094C27.6093 6.53666 27.5984 6.54504 27.5897 6.55547C27.5809 6.56589 27.5746 6.57812 27.5712 6.59127C27.5677 6.60441 27.5672 6.61816 27.5697 6.63152C27.575 6.65581 27.586 6.67848 27.6019 6.69767C27.6177 6.71685 27.6378 6.732 27.6606 6.74185ZM33.3571 8.71635C33.3797 8.72066 33.4031 8.71789 33.4241 8.70844C33.445 8.69898 33.4626 8.68329 33.4743 8.66351C33.486 8.64372 33.4914 8.6208 33.4896 8.59787C33.4878 8.57494 33.479 8.55311 33.4644 8.53536C33.4498 8.51761 33.43 8.5048 33.4079 8.49867C33.3857 8.49255 33.3622 8.49341 33.3405 8.50113C33.3189 8.50886 33.3001 8.52308 33.2868 8.54185C33.2735 8.56062 33.2663 8.58303 33.2662 8.60603C33.2714 8.63036 33.2824 8.65308 33.2982 8.67228C33.314 8.69148 33.3343 8.7066 33.3571 8.71635Z" fill="#DFBC00"/>
<path d="M32.0989 16.1231H32.1015C32.3235 16.1199 32.5439 16.1611 32.7498 16.2441C32.9556 16.3272 33.1429 16.4505 33.3005 16.6069C33.45 16.7538 33.5686 16.9293 33.6492 17.1228C33.7298 17.3164 33.7707 17.5242 33.7696 17.7338V21.5796C33.7696 21.7032 33.9231 21.8081 34.087 21.8081C34.2509 21.8081 34.4043 21.7038 34.4043 21.5796V17.7373C34.4038 17.5187 34.4485 17.3024 34.5354 17.1019C34.6223 16.9014 34.7497 16.721 34.9095 16.572C35.2238 16.2788 35.6389 16.118 36.0687 16.1231H39.1491C39.9018 15.3785 40.4994 14.4921 40.9073 13.5151C41.3152 12.5381 41.5252 11.4899 41.5253 10.4311C41.521 9.31815 41.2873 8.21802 40.8388 7.19939C40.3904 6.18077 39.7368 5.26552 38.9188 4.51078C38.3153 3.94535 37.6365 3.46609 36.9018 3.08662C36.9608 3.13441 37.0163 3.18633 37.0679 3.24201C37.3492 3.55201 37.5038 3.95636 37.501 4.37494C37.4945 4.81791 37.314 5.24056 36.9986 5.55159C36.6831 5.86262 36.2579 6.03707 35.8149 6.03725C35.3719 6.03744 34.9466 5.86334 34.6308 5.55257C34.3151 5.2418 34.1343 4.8193 34.1275 4.37634C34.124 4.15499 34.1655 3.93524 34.2493 3.73036C34.3332 3.52548 34.4577 3.33972 34.6153 3.18429C34.773 3.02886 34.9605 2.90699 35.1665 2.82603C35.3726 2.74507 35.5929 2.70671 35.8142 2.71325C35.935 2.7131 36.0555 2.7247 36.1741 2.74791C34.8237 2.19043 33.3644 1.94678 31.9062 2.03532C27.4628 2.29951 23.8507 5.61324 23.5033 9.74328C23.4099 10.9122 23.5714 12.0874 23.9768 13.1877C24.3821 14.2881 25.0215 15.2873 25.8507 16.1163L32.0989 16.1231ZM38.2697 13.9178C38.0485 13.9238 37.8284 13.8852 37.6226 13.8041C37.4167 13.7229 37.2294 13.601 37.0719 13.4457C36.9143 13.2904 36.7898 13.1048 36.7058 12.9001C36.6218 12.6954 36.58 12.4759 36.583 12.2547C36.5796 12.0333 36.621 11.8136 36.7049 11.6087C36.7887 11.4038 36.9132 11.218 37.0709 11.0626C37.2285 10.9072 37.416 10.7853 37.622 10.7044C37.8281 10.6234 38.0484 10.585 38.2697 10.5916C38.4908 10.5855 38.711 10.6242 38.9168 10.7053C39.1226 10.7864 39.3099 10.9083 39.4675 11.0636C39.625 11.219 39.7496 11.4045 39.8336 11.6092C39.9176 11.8139 39.9594 12.0334 39.9564 12.2547C39.9598 12.476 39.9183 12.6958 39.8345 12.9006C39.7506 13.1055 39.6261 13.2913 39.4685 13.4467C39.3109 13.6021 39.1234 13.724 38.9173 13.805C38.7113 13.8859 38.491 13.9243 38.2697 13.9178ZM36.8672 7.79493L38.7804 7.64449C38.8968 7.63532 39.0138 7.64916 39.1248 7.68521C39.2358 7.72126 39.3386 7.77882 39.4273 7.8546C39.5161 7.93039 39.589 8.02291 39.642 8.12689C39.695 8.23087 39.727 8.34426 39.7362 8.46061C39.7453 8.57695 39.7315 8.69396 39.6955 8.80496C39.6594 8.91596 39.6018 9.01876 39.5261 9.10752C39.4503 9.19627 39.3578 9.26922 39.2538 9.32222C39.1498 9.37521 39.0364 9.40721 38.9201 9.41637L37.0069 9.56732C36.9833 9.56923 36.9596 9.57012 36.9362 9.57012C36.7052 9.57206 36.4825 9.48398 36.3153 9.32453C36.1481 9.16508 36.0496 8.9468 36.0407 8.71596C36.0317 8.48512 36.113 8.25986 36.2673 8.08792C36.4216 7.91599 36.6368 7.8109 36.8672 7.79493ZM33.7796 13.113L32.5403 14.4874C32.3825 14.6625 32.1615 14.7677 31.9261 14.7799C31.6907 14.7921 31.4601 14.7103 31.285 14.5525C31.11 14.3946 31.0047 14.1737 30.9925 13.9383C30.9803 13.7029 31.0621 13.4723 31.22 13.2972L32.4593 11.9228C32.6171 11.7477 32.838 11.6425 33.0734 11.6303C33.3088 11.6181 33.5395 11.6999 33.7145 11.8577C33.8896 12.0156 33.9948 12.2365 34.007 12.4719C34.0192 12.7073 33.9374 12.9379 33.7796 13.113ZM33.357 6.94307C33.5781 6.93702 33.7982 6.97572 34.004 7.05685C34.2099 7.13798 34.3972 7.25987 34.5547 7.4152C34.7122 7.57053 34.8368 7.7561 34.9208 7.96076C35.0048 8.16541 35.0466 8.38494 35.0437 8.60616C35.0484 8.94076 34.9535 9.2692 34.771 9.5497C34.5885 9.83021 34.3267 10.0501 34.019 10.1814C33.7112 10.3127 33.3713 10.3495 33.0425 10.2871C32.7137 10.2248 32.411 10.066 32.1727 9.83105C31.9344 9.5961 31.7714 9.29559 31.7044 8.96774C31.6373 8.63988 31.6694 8.29951 31.7963 7.9899C31.9233 7.68028 32.1395 7.41543 32.4174 7.22903C32.6953 7.04262 33.0223 6.94308 33.357 6.94307ZM29.2971 3.24315C29.4435 3.05843 29.6572 2.93942 29.8913 2.91227C30.1254 2.88513 30.3607 2.95209 30.5455 3.09843L32.0117 4.26017C32.1046 4.33212 32.1824 4.4218 32.2404 4.524C32.2985 4.62621 32.3357 4.73892 32.3499 4.85561C32.3641 4.97229 32.355 5.09064 32.3231 5.20379C32.2913 5.31693 32.2373 5.42264 32.1643 5.51477C32.0913 5.60691 32.0008 5.68365 31.8979 5.74055C31.795 5.79745 31.6819 5.83338 31.5651 5.84626C31.4482 5.85914 31.33 5.84871 31.2172 5.81557C31.1044 5.78244 30.9994 5.72726 30.908 5.65323L29.4419 4.49161C29.3504 4.41914 29.2741 4.32936 29.2173 4.2274C29.1605 4.12544 29.1244 4.01329 29.1109 3.89736C29.0975 3.78143 29.107 3.66398 29.139 3.55173C29.1709 3.43948 29.2247 3.33463 29.2971 3.24315ZM27.6605 4.96895C27.8816 4.96286 28.1017 5.00153 28.3076 5.08265C28.5134 5.16377 28.7007 5.28566 28.8583 5.441C29.0158 5.59634 29.1403 5.78192 29.2243 5.98659C29.3084 6.19127 29.3501 6.41081 29.3472 6.63204C29.3519 6.96664 29.257 7.29508 29.0745 7.57558C28.892 7.85609 28.6302 8.07598 28.3224 8.2073C28.0147 8.33861 27.6748 8.37542 27.346 8.31303C27.0172 8.25064 26.7145 8.09187 26.4762 7.85692C26.2379 7.62198 26.0749 7.32147 26.0079 6.99361C25.9408 6.66576 25.9728 6.32538 26.0998 6.01577C26.2268 5.70616 26.4429 5.44131 26.7209 5.25491C26.9988 5.0685 27.3258 4.96896 27.6605 4.96895ZM25.0085 9.31837C25.1549 9.13367 25.3687 9.01467 25.6028 8.98756C25.8369 8.96044 26.0721 9.02742 26.2569 9.17377L27.723 10.3354C27.815 10.4077 27.8919 10.4974 27.9491 10.5995C28.0063 10.7015 28.0428 10.8138 28.0566 10.93C28.0703 11.0462 28.0609 11.164 28.029 11.2765C27.9971 11.3891 27.9433 11.4943 27.8706 11.586C27.798 11.6777 27.7079 11.7541 27.6056 11.811C27.5034 11.8678 27.3909 11.9039 27.2746 11.9171C27.1584 11.9304 27.0407 11.9205 26.9282 11.8882C26.8158 11.8558 26.7109 11.8016 26.6194 11.7286L25.1533 10.5663C24.9687 10.42 24.8497 10.2063 24.8226 9.9723C24.7954 9.73829 24.8623 9.50308 25.0085 9.31837ZM25.3711 13.6054C25.3676 13.384 25.4089 13.1641 25.4927 12.9591C25.5765 12.7541 25.701 12.5682 25.8586 12.4127C26.0163 12.2571 26.2038 12.1352 26.4099 12.0541C26.616 11.9731 26.8364 11.9347 27.0578 11.9412C27.279 11.9352 27.4991 11.9739 27.7049 12.055C27.9107 12.1361 28.098 12.258 28.2555 12.4133C28.4131 12.5687 28.5376 12.7542 28.6216 12.9589C28.7057 13.1636 28.7475 13.3831 28.7445 13.6043C28.7479 13.8257 28.7064 14.0454 28.6226 14.2503C28.5387 14.4551 28.4142 14.6409 28.2566 14.7963C28.0989 14.9517 27.9115 15.0736 27.7054 15.1546C27.4994 15.2355 27.2791 15.2739 27.0578 15.2674C26.8367 15.2734 26.6166 15.2348 26.4107 15.1536C26.2049 15.0725 26.0176 14.9506 25.8601 14.7953C25.7025 14.6399 25.578 14.4544 25.494 14.2497C25.41 14.0451 25.3682 13.8255 25.3711 13.6043V13.6054Z" fill="#DFBC00"/>
<path d="M35.7236 4.37544C35.7209 4.3888 35.7212 4.40258 35.7245 4.4158C35.7277 4.42902 35.7339 4.44136 35.7425 4.45192C35.7511 4.46248 35.7619 4.47101 35.7742 4.47689C35.7865 4.48278 35.7999 4.48587 35.8136 4.48594C35.8272 4.48602 35.8406 4.48308 35.853 4.47733C35.8653 4.47159 35.8763 4.46318 35.885 4.45272C35.8937 4.44225 35.9 4.42999 35.9034 4.4168C35.9068 4.40362 35.9073 4.38984 35.9048 4.37646C35.9074 4.36311 35.9071 4.34932 35.9039 4.3361C35.9006 4.32288 35.8944 4.31055 35.8858 4.29998C35.8772 4.28942 35.8664 4.28089 35.8541 4.27501C35.8418 4.26913 35.8284 4.26604 35.8148 4.26596C35.8012 4.26589 35.7877 4.26883 35.7754 4.27457C35.763 4.28031 35.7521 4.28872 35.7434 4.29918C35.7346 4.30965 35.7283 4.32191 35.7249 4.3351C35.7215 4.34828 35.7211 4.36206 35.7236 4.37544ZM38.5001 17.9004H36.1816V21.5796C36.1816 22.6853 35.2337 23.5855 34.0869 23.5855C32.9401 23.5855 31.9922 22.6859 31.9922 21.5796V17.8791L26.4052 17.8822L23.1529 26.9868C20.8777 34.2165 21.5898 41.757 25.1069 47.678C27.1191 51.0654 29.7447 52.9308 32.5 52.9308C35.2553 52.9308 37.8809 51.0654 39.8931 47.678C43.4097 41.7582 44.1219 34.2278 41.8482 26.9993L38.5001 17.9004ZM27.342 42.6226C27.3271 42.6234 27.3123 42.6238 27.2975 42.6238C27.0695 42.6236 26.8503 42.5358 26.6852 42.3786C26.5202 42.2213 26.4218 42.0067 26.4106 41.779L25.6779 26.9794C25.669 26.7457 25.7526 26.5178 25.9106 26.3453C26.0687 26.1727 26.2883 26.0695 26.522 26.0579C26.7557 26.0464 26.9845 26.1274 27.1588 26.2835C27.3331 26.4396 27.4388 26.6581 27.453 26.8916L28.1858 41.6914C28.1973 41.9268 28.1149 42.1571 27.9567 42.3317C27.7985 42.5063 27.5774 42.611 27.342 42.6226ZM33.2617 41.7813C33.2617 42.017 33.1681 42.243 33.0014 42.4097C32.8348 42.5763 32.6087 42.67 32.373 42.67C32.1374 42.67 31.9113 42.5763 31.7447 42.4097C31.578 42.243 31.4844 42.017 31.4844 41.7813V26.9278C31.4844 26.6921 31.578 26.466 31.7447 26.2994C31.9113 26.1327 32.1374 26.0391 32.373 26.0391C32.6087 26.0391 32.8348 26.1327 33.0014 26.2994C33.1681 26.466 33.2617 26.6921 33.2617 26.9278V41.7813ZM38.4429 41.779C38.4317 42.0067 38.3333 42.2213 38.1683 42.3786C38.0032 42.5358 37.784 42.6236 37.556 42.6238C37.5411 42.6238 37.5263 42.6234 37.5115 42.6226C37.3949 42.6169 37.2806 42.5882 37.1751 42.5383C37.0697 42.4883 36.975 42.4181 36.8967 42.3316C36.8183 42.2451 36.7578 42.1441 36.7185 42.0342C36.6792 41.9243 36.662 41.8077 36.6677 41.6912L37.4004 26.8916C37.4117 26.6639 37.51 26.4493 37.675 26.2921C37.8401 26.1349 38.0592 26.0471 38.2872 26.0469C38.302 26.0469 38.3169 26.0468 38.3318 26.048C38.5672 26.0597 38.7883 26.1643 38.9465 26.339C39.1047 26.5137 39.1871 26.7441 39.1754 26.9794L38.4429 41.779Z" fill="#DFBC00"/>
</svg>
