<svg width="45" height="48" viewBox="0 0 45 48" fill="none" xmlns="http://www.w3.org/2000/svg">
<path d="M0.214294 5.52928L22.5 47.0756L44.7857 5.52928C29.9286 -1.69616 15.0714 -1.69616 0.214294 5.52928ZM9.50001 12.7547C7.45715 12.7547 5.78572 11.129 5.78572 9.14201C5.78572 7.15501 7.45715 5.52928 9.50001 5.52928C11.5429 5.52928 13.2143 7.15501 13.2143 9.14201C13.2143 11.129 11.5429 12.7547 9.50001 12.7547ZM16.9286 25.3993C14.8857 25.3993 13.2143 23.7735 13.2143 21.7865C13.2143 19.7995 14.8857 18.1738 16.9286 18.1738C18.9714 18.1738 20.6429 19.7995 20.6429 21.7865C20.6429 23.7735 18.9714 25.3993 16.9286 25.3993ZM29.9286 25.3993C28.8143 25.3993 28.0714 24.6767 28.0714 23.5929C28.0714 22.5091 28.8143 21.7865 29.9286 21.7865C31.0429 21.7865 31.7857 22.5091 31.7857 23.5929C31.7857 24.6767 31.0429 25.3993 29.9286 25.3993ZM31.7857 9.14201C33.8286 9.14201 35.5 10.7677 35.5 12.7547C35.5 14.7417 33.8286 16.3675 31.7857 16.3675C29.7429 16.3675 28.0714 14.7417 28.0714 12.7547C28.0714 10.7677 29.7429 9.14201 31.7857 9.14201ZM26.5857 3.72292C27.7 3.72292 28.4429 4.44547 28.4429 5.52928C28.4429 6.6131 27.7 7.33565 26.5857 7.33565C25.4714 7.33565 24.7286 6.6131 24.7286 5.52928C24.7286 4.44547 25.6572 3.72292 26.5857 3.72292ZM24.3572 32.6247C25.4714 32.6247 26.2143 33.3473 26.2143 34.4311C26.2143 35.5149 25.4714 36.2374 24.3572 36.2374C23.2429 36.2374 22.5 35.5149 22.5 34.4311C22.5 33.3473 23.2429 32.6247 24.3572 32.6247ZM20.6429 16.3675C19.5286 16.3675 18.7857 15.6449 18.7857 14.5611C18.7857 13.4773 19.5286 12.7547 20.6429 12.7547C21.7572 12.7547 22.5 13.4773 22.5 14.5611C22.5 15.6449 21.7572 16.3675 20.6429 16.3675Z" fill="#DFBC00"/>
</svg>
