<svg width="65" height="64" viewBox="0 0 65 64" fill="none" xmlns="http://www.w3.org/2000/svg">
<path d="M22.3742 13.7453C23.4724 12.5494 24.9782 11.7231 26.6773 11.4543C26.2975 9.31117 25.5445 7.47709 24.8814 6.18054C24.4877 5.40124 23.3411 5.42137 22.9819 6.22079C22.3604 7.53748 21.2137 9.45898 19.1002 11.8103C19.6542 11.9001 21.125 12.5601 22.3742 13.7453ZM62.4974 21.189C63.8304 17.6351 63.0499 11.8776 62.4905 8.84762C62.3386 8.03474 61.3302 7.7122 60.7153 8.2901C57.3446 11.4646 53.6866 12.8974 52.6755 13.5438C53.9533 15.7541 54.7063 18.5758 54.8097 21.1891H62.4974V21.189ZM49.3671 21.189H53.4353C53.2834 18.092 52.1162 14.6455 50.3687 12.6502C49.9473 12.1666 49.2705 11.9516 48.6488 12.1464C47.8408 12.395 47.0257 12.825 46.2935 13.4229C48.5885 15.484 49.6576 18.4605 49.3671 21.189ZM7.17184 13.8392C7.84875 12.5829 9.09886 11.7431 10.5217 11.5685C9.0091 10.46 7.91096 9.43885 7.17184 8.65955C6.59166 8.05486 5.56245 8.31689 5.3691 9.12311C4.88566 11.0983 4.22944 14.2557 4.16724 17.2118C5.43118 16.352 6.42586 15.2367 7.17184 13.8392ZM20.9997 21.189C20.6475 20.3156 20.4679 19.3549 20.4954 18.3607C20.53 17.0708 20.9098 15.8682 21.5453 14.8403C20.7925 14.0811 19.8946 13.51 18.9966 13.1742C18.3583 12.9442 17.6687 13.1433 17.2491 13.584C16.7794 14.061 16.3373 14.6388 15.9437 15.2771C17.1939 17.3597 18.0296 19.3685 18.4233 21.1891H20.9997V21.189ZM21.8769 18.401C21.8493 19.4021 22.0773 20.356 22.5123 21.189H29.9997C29.9583 20.8195 29.9513 20.45 29.9583 20.0738C30.0204 17.8971 30.8217 15.922 32.1202 14.3633C31.0772 13.369 29.6543 12.7442 28.0795 12.6972C24.7434 12.6032 21.9737 15.1494 21.8769 18.401ZM31.381 21.189H33.1424C33.0872 20.8531 33.0733 20.5105 33.0803 20.1611C33.1839 16.6207 36.2299 13.8259 39.8699 13.9267C43.503 14.0274 46.3832 16.9835 46.2796 20.5239C46.2728 20.7457 46.2519 20.9674 46.2244 21.189H47.9719C47.9995 20.9875 48.0133 20.7792 48.0203 20.571C48.1515 16.0899 44.5253 12.3613 39.9183 12.2337C35.3044 12.1061 31.4709 15.6264 31.3396 20.1142C31.3258 20.4769 31.3396 20.833 31.381 21.189Z" fill="#DFBC00"/>
<path d="M39.1685 17.0026C39.1591 17.3265 39.7398 18.2868 39.7398 18.2868C39.7398 18.2868 40.3753 17.36 40.3848 17.0361C40.3943 16.7074 40.1319 16.4325 39.794 16.4231C39.461 16.414 39.178 16.674 39.1685 17.0026ZM42.6104 17.6497C42.3817 17.4142 41.9926 17.4034 41.7469 17.6293C41.5048 17.8518 41.2173 18.9303 41.2173 18.9303C41.2173 18.9303 42.3405 18.712 42.5826 18.4895C42.8282 18.2637 42.8425 17.8886 42.6104 17.6497ZM43.7102 20.4541C43.7196 20.1302 43.4524 19.8549 43.1144 19.8457C42.7814 19.8365 41.7941 20.4013 41.7941 20.4013C41.7941 20.4013 42.747 21.0196 43.08 21.0287C43.418 21.038 43.7007 20.7828 43.7102 20.4541ZM35.65 20.2325C35.6406 20.5564 35.9079 20.8317 36.2458 20.8409C36.5788 20.8501 37.5661 20.2853 37.5661 20.2853C37.5661 20.2853 36.6132 19.667 36.2802 19.6579C35.9422 19.6485 35.6595 19.9038 35.65 20.2325ZM37.7742 17.5201C37.542 17.2812 37.1565 17.2672 36.9109 17.4931C36.6688 17.7156 36.6577 18.0941 36.8899 18.333C37.1188 18.5685 38.2275 18.8482 38.2275 18.8482C38.2275 18.8482 38.0031 17.7557 37.7742 17.5201ZM3.1242 21.189C3.29927 20.8222 3.56689 20.5466 3.9461 20.3695C6.34704 19.2412 8.28498 17.4758 9.57533 15.0621C10.1805 13.93 11.7636 13.8678 12.4832 14.9008C14.0442 17.1044 15.1148 19.2946 15.6328 21.189H17.0141C16.4962 19.0459 15.308 16.6139 13.5744 14.1685C12.2759 12.3276 9.45777 12.4889 8.40101 14.4641C7.26135 16.5803 5.58291 18.1658 3.37265 19.2071C2.46786 19.6371 1.90837 20.4029 1.73572 21.2427C2.25419 21.1588 2.47801 21.2001 3.1242 21.189Z" fill="#DFBC00"/>
<path d="M8.64295 19.5968C8.24228 19.9731 8.12498 20.5575 8.26298 21.189H12.7664C12.5937 20.9002 12.3796 20.618 12.1171 20.356C10.9706 19.2071 9.4166 18.8646 8.64295 19.5968ZM19.1149 53.8803L17.2327 56.3345C16.4715 57.3271 17.1998 58.7392 18.4729 58.7392H46.527C47.8001 58.7392 48.5283 57.3271 47.7672 56.3345L45.885 53.8803C55.0036 50.6495 60.798 43.3027 63.4023 34.3366H1.59768C4.202 43.3027 9.9964 50.6494 19.1149 53.8803ZM62.6425 22.5326H2.3575C1.03833 22.5326 -0.032268 23.6075 0.0367945 24.8974C0.0644702 25.4684 0.105857 26.0395 0.168064 26.6038H64.832C64.8942 26.0395 64.9356 25.4684 64.9633 24.8974C65.0322 23.6077 63.9616 22.5326 62.6425 22.5326ZM1.2313 32.9907H63.7687C64.1787 31.3579 64.4881 29.6725 64.6969 27.9493H0.303015C0.511853 29.6723 0.821238 31.3579 1.2313 32.9907Z" fill="#DFBC00"/>
</svg>
