<svg width="49" height="85" viewBox="0 0 49 85" fill="none" xmlns="http://www.w3.org/2000/svg">
<g filter="url(#filter0_d_108_315)">
<path d="M44.2747 9.48115H33.9559C34.1951 9.02523 34.3475 8.49853 34.3475 7.94042C34.3475 7.3745 34.1951 6.8478 33.9487 6.38392C35.4424 6.28955 36.8058 5.39348 37.5527 3.98634C38.3067 2.57139 37.3496 0.794739 35.8413 0.794739H24.5652C23.0497 0.794739 22.0924 2.57139 22.8466 3.98634C23.5935 5.39348 24.964 6.28955 26.4506 6.38392C26.204 6.8478 26.0518 7.37435 26.0518 7.94042C26.0518 8.49853 26.204 9.02523 26.4434 9.48115H16.1245C15.7257 9.48115 15.3994 9.82708 15.3994 10.2672C15.3994 10.6996 15.7257 11.0533 16.1245 11.0533H18.3072C18.6625 14.3391 21.244 16.894 24.3695 16.894H26.922V48.2515H25.4572C24.4565 48.2515 23.608 48.9668 23.3035 49.9494H17.8939C15.0731 49.9494 12.7744 52.4336 12.7744 55.4914V64.8381C12.7744 67.0313 11.1355 68.8158 9.1123 68.8158C7.09635 68.8158 5.45024 67.0313 5.45024 64.8381V30.5093C5.45024 27.8994 7.4009 25.7848 9.80845 25.7848H12.2232C12.5423 26.964 13.5284 27.8286 14.7177 27.8286H18.1766C19.2498 27.8286 20.1273 26.9246 20.207 25.7768C20.7218 25.7768 21.3455 25.7847 21.3455 25.7847C21.7443 25.7847 22.0706 25.4309 22.0706 24.9986C22.0706 24.5663 21.7515 24.2125 21.3527 24.2125H20.207C20.12 23.0727 19.2498 22.1765 18.1766 22.1765H14.7177C13.5357 22.1765 12.5422 23.0412 12.2232 24.2125H9.80845C6.60328 24.2125 4 27.0346 4 30.5092V64.8381C4 67.896 6.29152 70.3881 9.1123 70.3881C11.9331 70.3881 14.2246 67.8962 14.2246 64.8381V55.4914C14.2246 53.2982 15.8707 51.5216 17.8939 51.5216H23.3035C23.405 51.8595 23.5791 52.1662 23.7967 52.4256C23.4123 52.8657 23.1731 53.4632 23.1731 54.1157C23.1731 55.4836 24.1955 56.5998 25.4572 56.5998H25.5443C25.2542 65.6006 18.3435 69.5862 17.4589 70.9226C15.5228 72.7857 16.7338 76.2602 19.3225 76.2602H41.0843C43.673 76.2602 44.884 72.7857 42.9479 70.9304C41.6281 69.2561 35.2685 65.5378 34.8697 56.5998H34.9422C36.2039 56.5998 37.2263 55.4836 37.2263 54.1157C37.2263 53.4632 36.9871 52.8659 36.6027 52.4256C36.9869 51.9775 37.2263 51.388 37.2263 50.7355C37.2263 49.3677 36.2039 48.2515 34.9422 48.2515H33.4846V16.894H36.0299C39.1554 16.894 41.7369 14.3393 42.0922 11.0533H44.2749C44.6737 11.0533 45 10.6996 45 10.2672C45 9.82693 44.6735 9.48115 44.2747 9.48115ZM34.9566 55.0277C34.9566 55.0277 30.4462 55.0277 25.4571 55.0277C25.0002 55.0277 24.6232 54.619 24.6232 54.1158C24.6232 53.6207 25.0002 53.2118 25.4571 53.2118H34.942C35.3989 53.2118 35.776 53.6206 35.776 54.1158C35.776 54.611 35.4061 55.0199 34.9566 55.0277ZM34.9422 49.8238C35.399 49.8238 35.7761 50.2325 35.7761 50.7357C35.7761 51.2309 35.399 51.6397 34.9422 51.6397H25.4572C25.0003 51.6397 24.6233 51.2309 24.6233 50.7357C24.6233 50.2325 25.0003 49.8238 25.4572 49.8238H34.9422V49.8238ZM31.4758 9.48115H28.9233C28.1402 9.48115 27.502 8.78945 27.502 7.94042C27.502 7.09936 28.1257 6.42329 28.8943 6.40751H31.5048C32.2735 6.42314 32.8971 7.09921 32.8971 7.94042C32.8972 8.78931 32.259 9.48115 31.4758 9.48115ZM32.0342 16.894V48.2515H28.3721V16.894H32.0342ZM26.7044 4.83523C25.6312 4.83523 24.6377 4.20634 24.1011 3.20013C23.9053 2.83061 24.1664 2.36688 24.5652 2.36688H35.8413C36.2329 2.36688 36.4939 2.83061 36.2981 3.20013C35.7615 4.20634 34.7681 4.83523 33.6949 4.83523C33.6224 4.83523 26.7044 4.83523 26.7044 4.83523Z" fill="#DFBC00"/>
<path d="M28.8943 5.9074V5.90751H31.5048H31.515L31.515 5.90761C32.5882 5.92944 33.3971 6.8607 33.3971 7.94034L28.8943 5.9074ZM28.8943 5.9074L28.8841 5.90762M28.8943 5.9074L28.8841 5.90762M28.8841 5.90762C27.8109 5.92964 27.002 6.86084 27.002 7.94042C27.002 9.02687 27.8269 9.98115 28.9233 9.98115H31.4758M28.8841 5.90762L31.4758 9.98115M31.4758 9.98115C32.5723 9.98115 33.3972 9.02676 33.3971 7.94042L31.4758 9.98115ZM33.5131 9.24881L33.1288 9.98115H33.9559H44.2747C44.3635 9.98115 44.5 10.0679 44.5 10.2672C44.5 10.4622 44.3603 10.5533 44.2749 10.5533H42.0922H41.6433L41.5951 10.9995C41.2634 14.0674 38.8656 16.394 36.0299 16.394H33.4846H32.9846V16.894V48.2515V48.7515H33.4846H34.9422C35.8885 48.7515 36.7263 49.603 36.7263 50.7355C36.7263 51.2633 36.5332 51.7386 36.2231 52.1001L35.9415 52.4285L36.226 52.7544C36.5318 53.1046 36.7263 53.5855 36.7263 54.1157C36.7263 55.2484 35.8885 56.0998 34.9422 56.0998H34.8697H34.3469L34.3702 56.6221C34.7041 64.1054 39.1744 68.1224 41.4393 70.1575C41.9444 70.6114 42.3398 70.9667 42.5552 71.24L42.5768 71.2673L42.6019 71.2914C43.4084 72.0642 43.5704 73.1825 43.2408 74.1262C42.9118 75.0685 42.1243 75.7602 41.0843 75.7602H19.3225C18.2825 75.7602 17.4951 75.0686 17.166 74.1254C16.8364 73.1807 16.9982 72.0598 17.8056 71.2829L17.8453 71.2446L17.8758 71.1986C17.9488 71.0883 18.1104 70.9173 18.3885 70.6592C18.5505 70.5088 18.7333 70.3456 18.9388 70.1622C19.0785 70.0374 19.2287 69.9033 19.3899 69.7575C20.1739 69.0489 21.1509 68.1248 22.1113 66.9522C24.0361 64.6023 25.8945 61.2534 26.044 56.6159L26.0607 56.0998H25.5443H25.4572C24.5109 56.0998 23.6731 55.2484 23.6731 54.1157C23.6731 53.5854 23.8676 53.1045 24.1733 52.7545L24.4549 52.4321L24.1797 52.1042C24.0018 51.8922 23.8626 51.645 23.7824 51.3778L23.6754 51.0216H23.3035H17.8939C15.5586 51.0216 13.7246 53.0595 13.7246 55.4914V64.8381C13.7246 67.6597 11.6188 69.8881 9.1123 69.8881C6.60578 69.8881 4.5 67.6596 4.5 64.8381V30.5092C4.5 27.272 6.91665 24.7125 9.80845 24.7125H12.2232H12.6053L12.7056 24.3439C12.9747 23.3559 13.7949 22.6765 14.7177 22.6765H18.1766C18.9498 22.6765 19.6382 23.331 19.7085 24.2506L19.7437 24.7125H20.207H21.3527C21.432 24.7125 21.5706 24.7969 21.5706 24.9986C21.5706 25.1921 21.433 25.2833 21.3474 25.2846L21.3445 25.2846L21.3236 25.2844L21.2455 25.2835C21.1787 25.2827 21.0843 25.2817 20.9738 25.2808C20.7529 25.2788 20.4666 25.2768 20.207 25.2768H19.7405L19.7082 25.7422C19.6439 26.6678 18.949 27.3286 18.1766 27.3286H14.7177C13.7892 27.3286 12.9756 26.651 12.7058 25.6542L12.6059 25.2848H12.2232H9.80845C7.08753 25.2848 4.95024 27.662 4.95024 30.5093V64.8381C4.95024 67.2681 6.78237 69.3158 9.1123 69.3158C11.45 69.3158 13.2744 67.2674 13.2744 64.8381V55.4914C13.2744 52.6719 15.3856 50.4494 17.8939 50.4494H23.3035H23.672L23.7811 50.0975C24.0313 49.29 24.7094 48.7515 25.4572 48.7515H26.922H27.422V48.2515V16.894V16.394H26.922H24.3695C21.5338 16.394 19.136 14.0673 18.8043 10.9995L18.7561 10.5533H18.3072H16.1245C16.0391 10.5533 15.8994 10.4622 15.8994 10.2672C15.8994 10.0678 16.036 9.98115 16.1245 9.98115H26.4434H27.2707L26.8861 9.24871C26.6792 8.85479 26.5518 8.40727 26.5518 7.94042C26.5518 7.46574 26.6792 7.01916 26.8921 6.61862L27.256 5.93404L26.4823 5.88492C25.1779 5.80212 23.958 5.01365 23.2883 3.75193L23.2878 3.75115C22.6824 2.61538 23.4865 1.29474 24.5652 1.29474H35.8413C36.9113 1.29474 37.7174 2.61403 37.1114 3.75118L37.111 3.75193C36.441 5.01416 35.2281 5.80209 33.9171 5.88491L33.1433 5.9338L33.5071 6.61852C33.72 7.01918 33.8475 7.46595 33.8475 7.94042C33.8475 8.4072 33.7199 8.85476 33.5131 9.24881ZM34.9566 55.5278L34.9653 55.5276C35.7274 55.5144 36.276 54.842 36.276 54.1158C36.276 53.3832 35.7123 52.7118 34.942 52.7118H25.4571C24.6868 52.7118 24.1232 53.3834 24.1232 54.1158C24.1232 54.8534 24.6842 55.5277 25.4571 55.5277H25.4863H25.5155H25.5447H25.5739H25.6031H25.6323H25.6615H25.6906H25.7197H25.7488H25.778H25.8071H25.8361H25.8652H25.8943H25.9233H25.9523H25.9813H26.0103H26.0393H26.0683H26.0972H26.1262H26.1551H26.184H26.2129H26.2418H26.2707H26.2995H26.3283H26.3572H26.386H26.4147H26.4435H26.4722H26.501H26.5297H26.5584H26.5871H26.6157H26.6444H26.673H26.7016H26.7302H26.7587H26.7873H26.8158H26.8443H26.8728H26.9013H26.9297H26.9582H26.9866H27.015H27.0433H27.0717H27.1H27.1283H27.1566H27.1849H27.2131H27.2413H27.2695H27.2977H27.3258H27.354H27.3821H27.4102H27.4382H27.4663H27.4943H27.5223H27.5502H27.5782H27.6061H27.634H27.6618H27.6897H27.7175H27.7453H27.7731H27.8008H27.8285H27.8562H27.8839H27.9115H27.9391H27.9667H27.9943H28.0218H28.0493H28.0768H28.1042H28.1316H28.159H28.1864H28.2137H28.241H28.2683H28.2956H28.3228H28.35H28.3771H28.4043H28.4314H28.4585H28.4855H28.5125H28.5395H28.5664H28.5934H28.6203H28.6471H28.6739H28.7007H28.7275H28.7542H28.7809H28.8076H28.8342H28.8609H28.8874H28.914H28.9405H28.9669H28.9934H29.0198H29.0462H29.0725H29.0988H29.1251H29.1513H29.1775H29.2037H29.2298H29.2559H29.2819H29.308H29.334H29.3599H29.3858H29.4117H29.4375H29.4633H29.4891H29.5148H29.5405H29.5662H29.5918H29.6174H29.6429H29.6684H29.6939H29.7193H29.7447H29.7701H29.7954H29.8207H29.8459H29.8711H29.8962H29.9213H29.9464H29.9715H29.9964H30.0214H30.0463H30.0712H30.096H30.1208H30.1455H30.1702H30.1949H30.2195H30.2441H30.2686H30.2931H30.3176H30.342H30.3663H30.3907H30.4149H30.4392H30.4634H30.4875H30.5116H30.5357H30.5597H30.5836H30.6075H30.6314H30.6553H30.679H30.7028H30.7265H30.7501H30.7737H30.7973H30.8208H30.8442H30.8677H30.891H30.9143H30.9376H30.9608H30.984H31.0071H31.0302H31.0532H31.0762H31.0992H31.122H31.1449H31.1677H31.1904H31.2131H31.2357H31.2583H31.2809H31.3033H31.3258H31.3482H31.3705H31.3928H31.415H31.4372H31.4593H31.4814H31.5034H31.5254H31.5473H31.5692H31.591H31.6128H31.6345H31.6561H31.6777H31.6993H31.7208H31.7422H31.7636H31.7849H31.8062H31.8274H31.8486H31.8697H31.8907H31.9117H31.9327H31.9536H31.9744H31.9952H32.0159H32.0366H32.0572H32.0777H32.0982H32.1187H32.139H32.1594H32.1796H32.1998H32.22H32.2401H32.2601H32.2801H32.3H32.3198H32.3396H32.3594H32.379H32.3987H32.4182H32.4377H32.4572H32.4765H32.4958H32.5151H32.5343H32.5534H32.5725H32.5915H32.6104H32.6293H32.6481H32.6669H32.6856H32.7042H32.7228H32.7413H32.7598H32.7781H32.7965H32.8147H32.8329H32.851H32.8691H32.8871H32.905H32.9229H32.9407H32.9584H32.9761H32.9937H33.0113H33.0287H33.0461H33.0635H33.0808H33.098H33.1151H33.1322H33.1492H33.1661H33.183H33.1998H33.2166H33.2332H33.2498H33.2664H33.2828H33.2992H33.3155H33.3318H33.348H33.3641H33.3802H33.3961H33.4121H33.4279H33.4437H33.4594H33.475H33.4905H33.506H33.5214H33.5368H33.5521H33.5672H33.5824H33.5974H33.6124H33.6273H33.6422H33.6569H33.6716H33.6862H33.7008H33.7152H33.7296H33.744H33.7582H33.7724H33.7865H33.8005H33.8145H33.8283H33.8421H33.8559H33.8695H33.8831H33.8966H33.91H33.9233H33.9366H33.9498H33.9629H33.9759H33.9889H34.0018H34.0146H34.0273H34.0399H34.0525H34.065H34.0774H34.0898H34.102H34.1142H34.1263H34.1383H34.1502H34.1621H34.1739H34.1856H34.1972H34.2087H34.2202H34.2316H34.2428H34.2541H34.2652H34.2762H34.2872H34.2981H34.3089H34.3196H34.3303H34.3408H34.3513H34.3617H34.372H34.3822H34.3924H34.4024H34.4124H34.4223H34.4321H34.4418H34.4514H34.461H34.4704H34.4798H34.4891H34.4983H34.5074H34.5165H34.5254H34.5343H34.5431H34.5518H34.5604H34.5689H34.5773H34.5857H34.5939H34.6021H34.6102H34.6182H34.6261H34.6339H34.6416H34.6492H34.6568H34.6643H34.6716H34.6789H34.6861H34.6932H34.7002H34.7071H34.714H34.7207H34.7273H34.7339H34.7404H34.7467H34.753H34.7592H34.7653H34.7713H34.7772H34.7831H34.7888H34.7944H34.8H34.8054H34.8108H34.8161H34.8212H34.8263H34.8313H34.8362H34.841H34.8457H34.8503H34.8548H34.8592H34.8635H34.8678H34.8719H34.8759H34.8799H34.8837H34.8874H34.8911H34.8946H34.8981H34.9014H34.9047H34.9079H34.9109H34.9139H34.9168H34.9195H34.9222H34.9248H34.9273H34.9296H34.9319H34.9341H34.9362H34.9382H34.94H34.9418H34.9435H34.9451H34.9465H34.9479H34.9492H34.9504H34.9514H34.9524H34.9533H34.9541H34.9547H34.9553H34.9558H34.9561H34.9564H34.9565L34.9566 55.0277V55.5278ZM32.5342 16.894V16.394H32.0342H28.3721H27.8721V16.894V48.2515V48.7515H28.3721H32.0342H32.5342V48.2515V16.894ZM23.6593 3.4343L23.6599 3.43541C24.2755 4.58965 25.4302 5.33523 26.7044 5.33523V4.83523L26.7045 5.33523H26.7047H26.7051H26.7057H26.7064H26.7072H26.7082H26.7094H26.7107H26.7122H26.7138H26.7156H26.7176H26.7196H26.7219H26.7242H26.7268H26.7295H26.7323H26.7352H26.7384H26.7416H26.745H26.7486H26.7523H26.7561H26.7601H26.7642H26.7685H26.7729H26.7774H26.7821H26.7869H26.7919H26.797H26.8022H26.8076H26.8131H26.8187H26.8245H26.8304H26.8365H26.8426H26.8489H26.8554H26.8619H26.8686H26.8755H26.8824H26.8895H26.8967H26.9041H26.9115H26.9191H26.9268H26.9347H26.9426H26.9507H26.9589H26.9673H26.9757H26.9843H26.993H27.0018H27.0107H27.0198H27.029H27.0382H27.0476H27.0572H27.0668H27.0765H27.0864H27.0964H27.1065H27.1167H27.127H27.1374H27.1479H27.1586H27.1693H27.1802H27.1912H27.2022H27.2134H27.2247H27.2361H27.2476H27.2592H27.2709H27.2827H27.2946H27.3067H27.3188H27.331H27.3433H27.3557H27.3682H27.3808H27.3936H27.4064H27.4193H27.4323H27.4454H27.4585H27.4718H27.4852H27.4987H27.5122H27.5259H27.5396H27.5534H27.5674H27.5814H27.5955H27.6096H27.6239H27.6383H27.6527H27.6672H27.6819H27.6966H27.7113H27.7262H27.7411H27.7562H27.7713H27.7865H27.8017H27.8171H27.8325H27.848H27.8636H27.8792H27.895H27.9108H27.9267H27.9426H27.9586H27.9747H27.9909H28.0072H28.0235H28.0399H28.0563H28.0728H28.0894H28.1061H28.1228H28.1396H28.1565H28.1734H28.1904H28.2075H28.2246H28.2418H28.259H28.2763H28.2937H28.3111H28.3286H28.3462H28.3638H28.3814H28.3992H28.4169H28.4348H28.4527H28.4706H28.4886H28.5067H28.5248H28.5429H28.5611H28.5794H28.5977H28.6161H28.6345H28.6529H28.6715H28.69H28.7086H28.7273H28.746H28.7647H28.7835H28.8023H28.8212H28.8401H28.8591H28.8781H28.8971H28.9162H28.9353H28.9545H28.9737H28.9929H29.0122H29.0315H29.0508H29.0702H29.0896H29.1091H29.1286H29.1481H29.1676H29.1872H29.2068H29.2264H29.2461H29.2658H29.2855H29.3053H29.3251H29.3449H29.3647H29.3846H29.4045H29.4244H29.4443H29.4643H29.4842H29.5042H29.5243H29.5443H29.5644H29.5845H29.6046H29.6247H29.6448H29.665H29.6851H29.7053H29.7255H29.7457H29.766H29.7862H29.8065H29.8267H29.847H29.8673H29.8876H29.9079H29.9282H29.9485H29.9689H29.9892H30.0095H30.0299H30.0502H30.0706H30.091H30.1113H30.1317H30.1521H30.1724H30.1928H30.2132H30.2336H30.2539H30.2743H30.2947H30.315H30.3354H30.3558H30.3761H30.3965H30.4168H30.4371H30.4575H30.4778H30.4981H30.5184H30.5387H30.559H30.5793H30.5995H30.6198H30.64H30.6602H30.6804H30.7006H30.7208H30.741H30.7611H30.7813H30.8014H30.8215H30.8415H30.8616H30.8816H30.9016H30.9216H30.9416H30.9616H30.9815H31.0014H31.0213H31.0411H31.061H31.0808H31.1005H31.1203H31.14H31.1597H31.1793H31.199H31.2186H31.2381H31.2577H31.2772H31.2967H31.3161H31.3355H31.3549H31.3742H31.3935H31.4128H31.432H31.4512H31.4703H31.4894H31.5085H31.5275H31.5465H31.5655H31.5844H31.6032H31.622H31.6408H31.6595H31.6782H31.6969H31.7155H31.734H31.7525H31.7709H31.7893H31.8077H31.826H31.8442H31.8624H31.8806H31.8987H31.9167H31.9347H31.9526H31.9705H31.9883H32.0061H32.0238H32.0414H32.059H32.0765H32.094H32.1114H32.1288H32.1461H32.1633H32.1804H32.1975H32.2146H32.2316H32.2485H32.2653H32.2821H32.2988H32.3154H32.332H32.3485H32.3649H32.3813H32.3976H32.4138H32.43H32.4461H32.4621H32.478H32.4939H32.5096H32.5254H32.541H32.5565H32.572H32.5874H32.6027H32.618H32.6331H32.6482H32.6632H32.6781H32.693H32.7077H32.7224H32.737H32.7515H32.7659H32.7803H32.7945H32.8087H32.8227H32.8367H32.8506H32.8644H32.8781H32.8917H32.9053H32.9187H32.9321H32.9453H32.9585H32.9715H32.9845H32.9974H33.0101H33.0228H33.0354H33.0479H33.0603H33.0726H33.0847H33.0968H33.1088H33.1207H33.1325H33.1441H33.1557H33.1672H33.1786H33.1898H33.201H33.212H33.2229H33.2338H33.2445H33.2551H33.2656H33.276H33.2863H33.2964H33.3065H33.3164H33.3263H33.336H33.3456H33.3551H33.3644H33.3737H33.3828H33.3918H33.4007H33.4095H33.4182H33.4267H33.4351H33.4434H33.4516H33.4596H33.4676H33.4754H33.483H33.4906H33.498H33.5053H33.5125H33.5195H33.5265H33.5332H33.5399H33.5464H33.5528H33.5591H33.5652H33.5712H33.5771H33.5828H33.5884H33.5939H33.5992H33.6044H33.6095H33.6144H33.6192H33.6238H33.6283H33.6327H33.6369H33.641H33.6449H33.6487H33.6523H33.6558H33.6592H33.6624H33.6655H33.6684H33.6712H33.6738H33.6763H33.6787H33.6808H33.6829H33.6848H33.6865H33.6881H33.6895H33.6908H33.6919H33.6929H33.6937H33.6944H33.6949C34.969 5.33523 36.1238 4.58965 36.7393 3.43541L36.74 3.43417C37.0899 2.77355 36.6561 1.86688 35.8413 1.86688H24.5652C23.7488 1.86688 23.3064 2.76847 23.6593 3.4343ZM36.2761 50.7357C36.2761 49.9981 35.7151 49.3238 34.9422 49.3238H25.4572C24.6843 49.3238 24.1233 49.9981 24.1233 50.7357C24.1233 51.4683 24.687 52.1397 25.4572 52.1397H34.9422C35.7124 52.1397 36.2761 51.4683 36.2761 50.7357Z" stroke="#DFBC00"/>
</g>
<defs>
<filter id="filter0_d_108_315" x="0" y="0.794739" width="49" height="83.4655" filterUnits="userSpaceOnUse" color-interpolation-filters="sRGB">
<feFlood flood-opacity="0" result="BackgroundImageFix"/>
<feColorMatrix in="SourceAlpha" type="matrix" values="0 0 0 0 0 0 0 0 0 0 0 0 0 0 0 0 0 0 127 0" result="hardAlpha"/>
<feOffset dy="4"/>
<feGaussianBlur stdDeviation="2"/>
<feComposite in2="hardAlpha" operator="out"/>
<feColorMatrix type="matrix" values="0 0 0 0 0 0 0 0 0 0 0 0 0 0 0 0 0 0 0.25 0"/>
<feBlend mode="normal" in2="BackgroundImageFix" result="effect1_dropShadow_108_315"/>
<feBlend mode="normal" in="SourceGraphic" in2="effect1_dropShadow_108_315" result="shape"/>
</filter>
</defs>
</svg>
