<svg width="96" height="93" viewBox="0 0 96 93" fill="none" xmlns="http://www.w3.org/2000/svg">
<path d="M48 92C73.9259 92 95 71.6599 95 46.5C95 21.3401 73.9259 1 48 1C22.0741 1 1 21.3401 1 46.5C1 71.6599 22.0741 92 48 92Z" stroke="#BF00A1" stroke-opacity="0.5" stroke-width="2"/>
<path d="M72.0143 46.1083C72.1159 45.2144 72.1667 44.4529 72.1667 43.8238C72.1667 40.5792 71.6081 40.5626 69.4583 40.5626H56.6784C57.9141 38.5761 58.625 36.5233 58.625 34.4375C58.625 28.1634 48.9258 25.1008 48.9258 19.8696C48.9258 17.9328 49.7891 16.3435 50.5 14.0921C46.0143 15.2509 42.4766 19.6379 42.4766 24.2896C42.4766 32.2854 52.0065 32.3516 52.0065 38.3278C52.0065 39.0727 51.7695 39.7349 51.651 40.5626H42.1888C42.3242 40.066 42.4089 39.5362 42.4089 39.023C42.4089 35.2486 35.7904 33.4111 35.7904 30.2823C35.7904 29.1235 35.9596 28.1634 36.332 26.8059C34.1484 27.6502 31.5417 30.1168 31.5417 32.8979C31.5417 37.3179 36.9414 37.7483 37.7708 40.5626H20.7083C18.5586 40.5626 18 40.5792 18 43.8238C18 47.0685 19.3034 53.9716 22.7904 62.1992C26.2773 70.4267 30.306 74.0521 33.1497 76.4691L33.1667 76.4359C34.0299 77.1975 35.1641 77.6444 36.4167 77.6444H53.75C55.0026 77.6444 56.1367 77.1975 57 76.4359L57.0169 76.4691C58.5404 75.1778 60.4023 73.5224 62.332 71.0227C63.1276 71.3538 63.9909 71.6352 64.9388 71.8504C66.3607 72.1815 67.7826 72.347 69.1367 72.347C73.1992 72.347 76.8555 70.824 79.4284 68.076C81.6966 65.659 83 62.3813 83 59.1035C83 52.6638 78.2604 47.2837 72.0143 46.1083ZM69.1367 67.0993C67.681 67.0993 66.4961 66.9006 65.3958 66.404C66.0729 65.0796 66.7331 63.7718 67.3763 62.2488C69.0859 58.2096 70.2708 54.4683 71.0325 51.3561C74.7565 52.0679 77.5833 55.296 77.5833 59.1532C77.5833 62.911 74.6719 67.0993 69.1367 67.0993Z" fill="#DFBC00"/>
</svg>
